<?xml version="1.0" encoding="UTF-8" standalone="no"?>
<svg width="580px" height="254px" viewBox="0 0 580 254" version="1.1" xmlns="http://www.w3.org/2000/svg" xmlns:xlink="http://www.w3.org/1999/xlink" xmlns:sketch="http://www.bohemiancoding.com/sketch/ns">
    <!-- Generator: Sketch 3.3.3 (12072) - http://www.bohemiancoding.com/sketch -->
    <title>Page-1</title>
    <desc>Created with Sketch.</desc>
    <defs></defs>
    <g id="Page-1" stroke="none" stroke-width="1" fill="none" fill-rule="evenodd" sketch:type="MSPage">
        <g sketch:type="MSLayerGroup" id="BlackFlag">
            <g sketch:type="MSShapeGroup">
                <path d="M527.79,189.6 L537.41,158.17 L494.42,158.17 L505.94,64.4 L474.28,64.4 L458.91,189.6 L527.79,189.6 L527.79,189.6 Z M579.2,27.35 L539.39,253.111 L424.44,253.111 L464.25,27.35 L579.2,27.35 L579.2,27.35 Z" id="Fill-1" fill="#FFFFFF"></path>
                <path d="M537.41,158.17 L527.79,189.6 L458.91,189.6 L474.28,64.4 L505.94,64.4 L494.42,158.17" id="Fill-2" fill="#0A0B09"></path>
                <path d="M392.35,177.72 L406.27,64.4 L374.611,64.4 L363.59,154.17 C363.34,156.43 361.33,158.21 359.06,158.17 L356.92,158.17 C356.781,158.18 356.51,158.16 356.371,158.14 C353.871,157.83 352.09,155.56 352.401,153.06 L363.29,64.4 L331.63,64.4 L318.121,174.42 C317.21,181.84 322.481,188.59 329.901,189.5 C330.321,189.56 331.13,189.611 331.55,189.6 L378.92,189.6 C385.651,189.7 391.63,184.401 392.35,177.72 M441.09,0.89 L401.29,226.651 L286.34,226.651 L326.151,0.89" id="Fill-3" fill="#FFFFFF"></path>
                <path d="M406.269,64.4 L392.349,177.72 C391.629,184.4 385.65,189.7 378.919,189.6 L331.549,189.6 C331.129,189.61 330.32,189.56 329.9,189.5 C322.48,188.59 317.209,181.84 318.12,174.42 L331.629,64.4 L363.29,64.4 L352.4,153.06 C352.089,155.56 353.87,157.83 356.37,158.14 C356.509,158.16 356.78,158.18 356.919,158.17 L359.059,158.17 C361.33,158.21 363.339,156.43 363.589,154.17 L374.61,64.4" id="Fill-4" fill="#0A0B09"></path>
                <path d="M261.52,79.58 C262.43,72.16 257.16,65.41 249.74,64.5 C249.32,64.44 248.51,64.39 248.09,64.4 L200.72,64.4 C193.99,64.3 188.01,69.6 187.29,76.28 L187.28,76.28 L173.37,189.6 L205.03,189.6 L208.89,158.17 L220.21,158.17 L216.35,189.6 L248.01,189.6 L261.52,79.58 L261.52,79.58 Z M293.66,27.35 L253.85,253.11 L138.91,253.11 L178.71,27.35 L293.66,27.35 L293.66,27.35 Z" id="Fill-5" fill="#FFFFFF"></path>
                <path d="M227.85,95.97 C228.15,93.48 226.38,91.2 223.88,90.9 C223.74,90.88 223.47,90.86 223.32,90.86 L221.19,90.86 C218.92,90.83 216.91,92.61 216.66,94.86 L212.14,131.71 L223.46,131.71 L227.85,95.97 L227.85,95.97 Z M249.74,64.5 C257.16,65.41 262.43,72.16 261.52,79.58 L248.01,189.599 L216.35,189.599 L220.21,158.17 L208.89,158.17 L205.03,189.599 L173.37,189.599 L187.28,76.28 L187.29,76.28 C188.01,69.6 193.99,64.3 200.72,64.4 L248.09,64.4 C248.51,64.39 249.32,64.44 249.74,64.5 L249.74,64.5 L249.74,64.5 Z" id="Fill-6" fill="#0A0B09"></path>
                <path d="M223.88,90.9 C226.38,91.2 228.15,93.48 227.85,95.97 L223.46,131.71 L212.14,131.71 L216.66,94.86 C216.91,92.61 218.92,90.83 221.19,90.86 L223.32,90.86 C223.47,90.86 223.74,90.88 223.88,90.9" id="Fill-7" fill="#FFFFFF"></path>
                <path d="M118.87,79.58 C119.78,72.16 114.51,65.41 107.09,64.5 C106.67,64.44 105.86,64.39 105.44,64.4 L46.09,64.4 L30.72,189.6 L62.38,189.6 L68.62,138.83 L99.62,138.83 C106.35,138.92 112.33,133.63 113.06,126.94 L113.05,126.94 L118.87,79.58 L118.87,79.58 Z M155.56,0.89 L115.75,226.65 L0.8,226.65 L40.61,0.89 L155.56,0.89 L155.56,0.89 Z" id="Fill-8" fill="#FFFFFF"></path>
                <path d="M90.2,95.98 C90.5,93.48 88.73,91.2 86.23,90.9 C86.09,90.88 85.81,90.86 85.67,90.86 L74.51,90.86 L71.86,112.36 L84.15,112.36 C86.42,112.4 88.43,110.61 88.67,108.36 L90.2,95.98 L90.2,95.98 Z M107.09,64.5 C114.51,65.41 119.78,72.16 118.87,79.58 L113.05,126.94 L113.06,126.94 C112.33,133.63 106.35,138.92 99.62,138.83 L68.62,138.83 L62.38,189.6 L30.72,189.6 L46.09,64.4 L105.44,64.4 C105.86,64.39 106.67,64.44 107.09,64.5 L107.09,64.5 L107.09,64.5 Z" id="Fill-9" fill="#0A0B09"></path>
                <path d="M86.23,90.9 C88.73,91.2 90.5,93.48 90.2,95.98 L88.67,108.36 C88.43,110.61 86.42,112.4 84.15,112.36 L71.86,112.36 L74.51,90.86 L85.67,90.86 C85.81,90.86 86.09,90.88 86.23,90.9" id="Fill-10" fill="#FFFFFF"></path>
                <path d="M318.12,174.42 C317.21,181.84 322.48,188.59 329.9,189.5 C330.32,189.56 331.13,189.61 331.55,189.6 M378.92,189.6 C385.65,189.701 391.63,184.401 392.35,177.72 M261.52,79.58 C262.43,72.16 257.16,65.41 249.74,64.5 C249.32,64.44 248.51,64.39 248.09,64.4 M200.72,64.4 C193.99,64.3 188.01,69.6 187.29,76.28 M99.62,138.83 C106.35,138.92 112.33,133.63 113.06,126.94 M118.87,79.58 C119.78,72.16 114.51,65.41 107.09,64.5 C106.67,64.44 105.86,64.39 105.44,64.4 M0.78,226.65 L115.75,226.65 M40.58,0.89 L155.56,0.89 M374.61,64.4 L406.269,64.4 M223.46,131.71 L227.85,95.97 M212.14,131.71 L216.66,94.86 M221.19,90.86 L223.32,90.86 M205.03,189.6 L173.37,189.6 M223.46,131.71 L212.14,131.71 M88.67,108.36 L90.2,95.98 M71.86,112.36 L84.15,112.36 M74.51,90.86 L85.67,90.86 M71.86,112.36 L74.51,90.86 M359.06,158.17 L356.92,158.17 M220.21,158.17 L208.89,158.17 M537.41,158.17 L494.42,158.17 M68.62,138.83 L99.62,138.83 M494.42,158.17 L505.941,64.4 M363.59,154.17 L374.611,64.4 M352.4,153.06 L363.29,64.4 M216.35,189.6 L220.21,158.17 M205.03,189.6 L208.89,158.17 M62.38,189.6 L68.62,138.83 M527.79,189.6 L537.41,158.17 M458.91,189.6 L474.28,64.4 M527.79,189.6 L458.91,189.6 M474.28,64.4 L505.94,64.4 M539.39,253.11 L579.201,27.35 M424.44,253.11 L464.25,27.35 M464.25,27.35 L579.21,27.35 M424.44,253.11 L539.33,253.11 M392.35,177.72 L406.27,64.4 M318.12,174.42 L331.63,64.4 M378.92,189.6 L331.55,189.6 M331.63,64.4 L363.29,64.4 M401.29,226.65 L441.09,0.89 M286.34,226.65 L326.151,0.89 M326.15,0.89 L441.089,0.89 M286.34,226.65 L401.29,226.65 M248.01,189.6 L261.52,79.58 M173.37,189.6 L187.28,76.28 M248.01,189.6 L216.35,189.6 M200.72,64.4 L248.09,64.4 M253.85,253.11 L293.66,27.35 M138.91,253.11 L178.71,27.35 M178.71,27.35 L293.66,27.35 M138.91,253.11 L253.85,253.11 M113.05,126.94 L118.87,79.58 M30.72,189.6 L46.09,64.4 M62.38,189.6 L30.72,189.6 M46.09,64.4 L105.44,64.4 M115.75,226.65 L155.56,0.89 M0.8,226.65 L40.61,0.89 M359.06,158.17 C361.331,158.21 363.34,156.43 363.59,154.17 M352.4,153.06 C352.089,155.56 353.87,157.831 356.37,158.14 C356.509,158.161 356.78,158.18 356.92,158.17 M227.85,95.97 C228.15,93.48 226.38,91.2 223.88,90.9 C223.74,90.88 223.47,90.86 223.32,90.86 M221.19,90.86 C218.92,90.83 216.91,92.61 216.66,94.86" id="Stroke-11" stroke="#0A0B09" fill="#000000"></path>
                <path d="M84.15,112.36 C86.42,112.4 88.43,110.61 88.67,108.36 M90.2,95.98 C90.5,93.48 88.73,91.2 86.23,90.9 C86.09,90.88 85.81,90.86 85.67,90.86" id="Stroke-12" stroke="#0A0B09" fill="#000000"></path>
            </g>
        </g>
    </g>
</svg>