<?xml version="1.0" encoding="UTF-8" standalone="no"?>
<svg width="601px" height="598px" viewBox="0 0 601 598" version="1.1" xmlns="http://www.w3.org/2000/svg" xmlns:xlink="http://www.w3.org/1999/xlink" xmlns:sketch="http://www.bohemiancoding.com/sketch/ns">
    <!-- Generator: Sketch 3.4.2 (15855) - http://www.bohemiancoding.com/sketch -->
    <title>Round Logo</title>
    <desc>Created with Sketch.</desc>
    <defs></defs>
    <g id="Page-1" stroke="none" stroke-width="1" fill="none" fill-rule="evenodd" sketch:type="MSPage">
        <g id="Round-Logo" sketch:type="MSLayerGroup">
            <path d="M300.69,597.646 C466.327,597.646 600.609,463.889 600.609,298.898 C600.609,133.905 466.327,0.149 300.69,0.149 C135.055,0.149 0.774,133.905 0.774,298.898 C0.774,463.889 135.055,597.646 300.69,597.646" id="Fill-1" fill="#1A1918" sketch:type="MSShapeGroup"></path>
            <path d="M300.69,556.469 C443.501,556.469 559.273,441.15 559.273,298.896 C559.273,156.644 443.501,41.322 300.69,41.322 C157.884,41.322 42.11,156.644 42.11,298.896 C42.11,441.15 157.884,556.469 300.69,556.469" id="Fill-2" fill="#1A1918" sketch:type="MSShapeGroup"></path>
            <path d="M300.69,556.469 C443.501,556.469 559.273,441.15 559.273,298.896 C559.273,156.644 443.501,41.322 300.69,41.322 C157.884,41.322 42.11,156.644 42.11,298.896 C42.11,441.15 157.884,556.469 300.69,556.469 L300.69,556.469 Z" id="Stroke-3" stroke="#FFFFFF" stroke-width="19" sketch:type="MSShapeGroup"></path>
            <path d="M266.781,429.241 L308.607,196.75 L190.358,196.75 L148.534,429.241" id="Fill-4" fill="#FFFFFF" sketch:type="MSShapeGroup"></path>
            <path d="M414.635,400.335 L454.268,167.668 L336.02,167.668 L296.385,400.335" id="Fill-5" fill="#FFFFFF" sketch:type="MSShapeGroup"></path>
            <path d="M129.587,400.335 L170.81,167.668 L52.561,167.668 L11.34,400.335" id="Fill-6" fill="#FFFFFF" sketch:type="MSShapeGroup"></path>
            <path d="M549.291,428.477 L590.408,196.75 L472.158,196.75 L431.046,428.477" id="Fill-7" fill="#FFFFFF" sketch:type="MSShapeGroup"></path>
            <path d="M91.136,266.847 L88.689,285.047 C89.76,285.361 94.093,285.047 95.069,284.89 C98.449,284.576 101.542,282.851 102.769,280.81 C104.802,277.516 105.593,270.455 104.139,268.26 C101.488,264.336 95.405,264.65 91.431,264.65 L91.136,266.847 Z M62.283,236.721 L112.192,236.721 C120.299,236.721 132.304,236.095 136.991,241.428 C142.23,247.39 140.34,255.55 138.631,268.26 L136.566,283.635 C135.236,293.519 133.844,303.874 127.427,309.052 C121.548,313.761 109.711,313.132 103.355,313.132 L84.915,313.132 L78.504,360.831 L45.602,360.831 L62.283,236.721 Z" id="Fill-18" fill="#1A1918" sketch:type="MSShapeGroup"></path>
            <path d="M240.336,281.752 C241.684,271.711 242.082,266.375 239.463,263.395 C238.085,261.825 233.932,261.983 232.375,262.923 C227.565,265.591 227.378,271.711 225.903,282.693 L222.697,306.542 L237.004,306.542 L240.336,281.752 Z M262.607,360.831 L229.706,360.831 L233.249,334.47 L218.943,334.47 L215.4,360.831 L182.658,360.831 L195.563,264.807 C196.66,256.647 197.269,247.39 203.951,241.428 C210.093,235.937 219.207,236.721 226.837,236.721 L252.267,236.721 C262.917,236.721 269.87,237.035 274.959,241.742 C278.905,245.508 276.801,255.236 275.557,264.493 L262.607,360.831 Z" id="Fill-19" fill="#1A1918" sketch:type="MSShapeGroup"></path>
            <path d="M341.068,236.721 L373.81,236.721 L363.143,316.113 C362.129,323.644 360.197,332.117 364.328,334.47 C365.519,335.097 369.493,335.097 371.185,334.313 C375.953,331.959 376.245,325.057 377.553,315.329 L388.116,236.721 L421.178,236.721 L408.422,331.646 C406.859,343.258 406.516,351.73 400.143,356.594 C394.305,360.986 383.517,360.831 375.412,360.831 L351.247,360.831 C343.302,360.831 333.522,361.457 329.228,356.75 C324.956,351.886 327.065,340.903 328.056,333.531" id="Fill-20" fill="#1A1918" sketch:type="MSShapeGroup"></path>
            <path d="M483.365,236.721 L520.559,236.721 C519.154,241.272 517.736,244.723 516.554,253.51 L505.8,333.531 L541.125,331.646 L530.844,360.831 L468.593,360.831 L482.891,254.451 C483.881,247.076 483.58,239.859 483.365,236.721" id="Fill-21" fill="#1A1918" sketch:type="MSShapeGroup"></path>
        </g>
    </g>
</svg>